<?xml version="1.0" standalone="no"?>
<!DOCTYPE svg PUBLIC "-//W3C//DTD SVG 20010904//EN"
 "http://www.w3.org/TR/2001/REC-SVG-20010904/DTD/svg10.dtd">
<svg version="1.0" xmlns="http://www.w3.org/2000/svg"
 width="512.000000pt" height="507.000000pt" viewBox="0 0 512.000000 507.000000"
 preserveAspectRatio="xMidYMid meet">

<g transform="translate(0.000000,507.000000) scale(0.100000,-0.100000)"
fill="#000000" stroke="none">
<path d="M0 2535 l0 -2535 2560 0 2560 0 0 2535 0 2535 -2560 0 -2560 0 0
-2535z m3620 1725 l0 -140 145 0 145 0 0 -140 0 -139 138 -3 137 -3 3 -142 3
-143 144 0 145 0 0 -435 0 -435 135 0 135 0 0 -140 0 -140 155 0 155 0 0 -145
0 -145 -155 0 -155 0 0 -290 0 -290 -135 0 -135 0 0 -145 0 -145 -720 0 -720
0 0 -140 0 -140 -715 0 -715 0 0 140 0 140 -292 2 -293 3 -3 142 -3 143 -144
0 -145 0 0 290 0 290 -150 0 -150 0 0 145 0 145 -130 0 -130 0 0 430 0 430
130 0 130 0 0 145 0 145 295 0 294 0 3 143 3 142 142 3 142 3 3 137 3 137 283
3 282 2 0 140 0 140 870 0 870 0 0 -140z"/>
<path d="M1887 4113 c-4 -3 -7 -66 -7 -140 l0 -133 -280 0 -280 0 0 -145 0
-145 145 0 145 0 0 -145 0 -145 -590 0 -590 0 0 -430 0 -430 150 0 150 0 0
-145 0 -145 440 0 440 0 0 -140 0 -140 -290 0 -290 0 0 -150 0 -150 290 0 290
0 0 -140 0 -140 715 0 715 0 0 140 0 140 715 0 715 0 0 150 0 150 -715 0 -715
0 0 140 0 140 855 0 855 0 0 145 0 145 -855 0 -855 0 0 140 0 140 570 0 570 0
0 435 0 435 -135 0 -135 0 0 145 0 145 -145 0 -144 0 -3 138 -3 137 -285 0
-285 0 -3 -137 -3 -138 -144 0 -144 0 -3 138 -3 137 -426 3 c-234 1 -429 -1
-432 -5z m863 -708 l0 -435 145 0 145 0 0 -145 0 -145 -145 0 -145 0 0 145 0
145 -145 0 -145 0 0 435 0 435 145 0 145 0 0 -435z m1160 -145 l0 -290 -145 0
-145 0 0 290 0 290 145 0 145 0 0 -290z m-2030 -145 l0 -145 -135 0 -135 0 0
145 0 145 135 0 135 0 0 -145z m290 -430 l0 -285 -135 0 -135 0 0 -145 0 -145
-145 0 -145 0 0 145 0 145 145 0 145 0 0 285 0 285 135 0 135 0 0 -285z m870
-430 l0 -145 -145 0 -145 0 0 -140 0 -140 145 0 145 0 0 -150 0 -150 -145 0
-145 0 0 150 0 150 -145 0 -145 0 0 140 0 140 145 0 145 0 0 145 0 145 145 0
145 0 0 -145z"/>
</g>
</svg>
